<?xml version="1.0" encoding="UTF-8"?>
<svg width="44px" height="44px" viewBox="0 0 44 44" version="1.1" xmlns="http://www.w3.org/2000/svg" xmlns:xlink="http://www.w3.org/1999/xlink">
    <!-- Generator: Sketch 41.2 (35397) - http://www.bohemiancoding.com/sketch -->
    <title>Adresse</title>
    <desc>Created with Sketch.</desc>
    <defs>
        <path d="M14.1826495,29.7614718 C14.3597782,28.8990947 15.2221531,28.2 16.102713,28.2 L28.6784343,28.2 C29.5617273,28.2 30.1319577,28.9099466 29.9570579,29.7614718 L28.9553303,34.6385282 C28.7782015,35.5009053 27.9158267,36.2 27.0352667,36.2 L14.4595455,36.2 C13.5762524,36.2 13.0060221,35.4900534 13.1809219,34.6385282 L14.1826495,29.7614718 Z" id="path-1"></path>
        <mask id="mask-2" maskContentUnits="userSpaceOnUse" maskUnits="objectBoundingBox" x="0" y="0" width="16.8408133" height="8" fill="white">
            <use xlink:href="#path-1"></use>
        </mask>
        <path d="M6.4,10 L12.4,21.9047619 C12.4,21.9047619 8.51201172,20.3047619 6.4,20.3047619 C4.28798828,20.3047619 0.4,21.9047619 0.4,21.9047619 L6.4,10 Z" id="path-3"></path>
        <mask id="mask-4" maskContentUnits="userSpaceOnUse" maskUnits="objectBoundingBox" x="0" y="0" width="12" height="11.9047619" fill="white">
            <use xlink:href="#path-3"></use>
        </mask>
    </defs>
    <g id="Page-1" stroke="none" stroke-width="1" fill="none" fill-rule="evenodd">
        <g id="Desktop-HD" transform="translate(-545.000000, -342.000000)">
            <g id="Adresse" transform="translate(545.000000, 342.000000)">
                <rect id="Rectangle-2" fill="#D88484" x="0" y="0" width="44" height="44" rx="22"></rect>
                <use id="Rectangle" stroke="#FFFFFF" mask="url(#mask-2)" stroke-width="4.8" xlink:href="#path-1"></use>
                <g id="Pin" transform="translate(15.200000, 10.200000)" stroke="#FFFFFF">
                    <ellipse id="Oval-2" stroke-width="3.52" fill="#D88484" cx="6.4" cy="5.6952381" rx="5.6" ry="5.6952381"></ellipse>
                    <use id="Triangle" mask="url(#mask-4)" stroke-width="7.04" fill="#979797" transform="translate(6.400000, 15.952381) scale(1, -1) translate(-6.400000, -15.952381) " xlink:href="#path-3"></use>
                </g>
            </g>
        </g>
    </g>
</svg>