<?xml version="1.0" encoding="UTF-8"?>
<svg width="63px" height="47px" viewBox="0 0 63 47" version="1.1" xmlns="http://www.w3.org/2000/svg" xmlns:xlink="http://www.w3.org/1999/xlink">
    <!-- Generator: Sketch 48.2 (47327) - http://www.bohemiancoding.com/sketch -->
    <title>Group 2</title>
    <desc>Created with Sketch.</desc>
    <defs></defs>
    <g id="Desktop-Copy-10" stroke="none" stroke-width="1" fill="none" fill-rule="evenodd" transform="translate(-658.000000, -587.000000)" stroke-linecap="round">
        <g id="Group-2" transform="translate(661.000000, 590.000000)" stroke="#000000" stroke-width="5">
            <path d="M41.7532697,3.28907311e-15 C29.5021798,2.32400545e-15 17.2510899,1.35893779e-15 5,3.93870125e-16 L5,8.8817842e-16 C2.23857625,1.39544373e-15 5.50001544e-16,2.23857625 8.8817842e-16,5 L0,37 C2.705415e-16,39.209139 1.790861,41 4,41 L53,41 C55.209139,41 57,39.209139 57,37 L57,12.0451672" id="Line"></path>
            <path d="M23.1133837,11 L12.2730842,20.2389158 C11.8527489,20.5971569 11.8024118,21.2283178 12.160653,21.648653 C12.1950864,21.6890549 12.2326823,21.7266508 12.2730842,21.7610842 L23.1133837,31" id="Line-6"></path>
            <path d="M42.1133837,11 L31.2730842,20.2389158 C30.8527489,20.5971569 30.8024118,21.2283178 31.160653,21.648653 C31.1950864,21.6890549 31.2326823,21.7266508 31.2730842,21.7610842 L42.1133837,31" id="Line-6" transform="translate(37.783384, 21.000000) scale(-1, 1) translate(-37.783384, -21.000000) "></path>
        </g>
    </g>
</svg>