<?xml version="1.0" encoding="UTF-8"?>
<svg width="63px" height="54px" viewBox="0 0 63 54" version="1.1" xmlns="http://www.w3.org/2000/svg" xmlns:xlink="http://www.w3.org/1999/xlink">
    <!-- Generator: Sketch 48.2 (47327) - http://www.bohemiancoding.com/sketch -->
    <title>Portfolio1</title>
    <desc>Created with Sketch.</desc>
    <defs></defs>
    <g id="Desktop-Copy-10" stroke="none" stroke-width="1" fill="none" fill-rule="evenodd" transform="translate(-546.000000, -580.000000)" stroke-linecap="round">
        <g id="Group" transform="translate(549.000000, 580.000000)" stroke="#000000" stroke-width="5">
            <g id="Portfolio1">
                <path d="M41.7532697,10 C29.5021798,10 17.2510899,10 5,10 L5,10 C2.23857625,10 5.50001544e-16,12.2385763 8.8817842e-16,15 L0,47 C2.705415e-16,49.209139 1.790861,51 4,51 L53,51 C55.209139,51 57,49.209139 57,47 L57,22.0451672" id="Line"></path>
                <path d="M39.045441,-2.05456525 L38.7454408,-2.05456525 C36.3706163,-2.05456525 34.4454407,-0.129389584 34.4454407,2.24543495 L34.4454407,33.9454348 C34.4454407,36.1545738 36.2363017,37.9454348 38.4454407,37.9454348 L39.045441,37.9454348 C41.25458,37.9454348 43.045441,36.1545738 43.045441,33.9454348 L43.045441,1.94543475 C43.045441,-0.263704244 41.25458,-2.05456525 39.045441,-2.05456525 Z" id="Line" fill="#FFFFFF" transform="translate(38.745441, 17.945435) rotate(45.000000) translate(-38.745441, -17.945435) "></path>
                <polyline id="Line-4" points="16 34 16 39.5 21.5 39.5"></polyline>
            </g>
        </g>
    </g>
</svg>