<?xml version="1.0" encoding="UTF-8"?>
<svg width="44px" height="44px" viewBox="0 0 44 44" version="1.1" xmlns="http://www.w3.org/2000/svg" xmlns:xlink="http://www.w3.org/1999/xlink">
    <!-- Generator: Sketch 41.2 (35397) - http://www.bohemiancoding.com/sketch -->
    <title>telefon</title>
    <desc>Created with Sketch.</desc>
    <defs></defs>
    <g id="Page-1" stroke="none" stroke-width="1" fill="none" fill-rule="evenodd">
        <g id="Desktop-HD" transform="translate(-699.000000, -344.000000)">
            <g id="telefon" transform="translate(699.000000, 344.000000)">
                <rect id="Rectangle-2" fill="#D88484" x="0" y="0" width="44" height="44" rx="22"></rect>
                <path d="M23.5415373,36.6315353 L22.0574046,36.6315353 C19.6143401,36.6315353 17.2535006,34.6902803 16.8607794,32.2721123 C16.8607794,32.2721123 16.1569219,30.0315353 16.1569219,23.4315353 C16.1569219,16.8315353 16.8629408,14.5761682 16.8629408,14.5761682 C17.2886995,12.1766937 19.6127864,10.2315353 22.0574046,10.2315353 L23.5415373,10.2315353 L25.3617803,10.2315353 C25.580011,10.2315353 25.7569219,10.4119213 25.7569219,10.6226654 L25.7569219,16.0930368 C25.7569219,16.309052 25.5788343,16.4841669 25.3617803,16.4841669 L22.3152535,16.4841669 C21.7524045,18.5135713 21.3261527,20.9758069 21.3261527,23.7789038 C21.3261527,26.3398998 21.6819542,28.5494249 22.1726588,30.3789038 L25.3617803,30.3789038 C25.580011,30.3789038 25.7569219,30.5592897 25.7569219,30.7700339 L25.7569219,36.2404052 C25.7569219,36.4564204 25.5788343,36.6315353 25.3617803,36.6315353 L23.5415373,36.6315353 Z" id="Combined-Shape" fill="#FFFFFF" transform="translate(20.956922, 23.431535) scale(1, -1) rotate(30.000000) translate(-20.956922, -23.431535) "></path>
            </g>
        </g>
    </g>
</svg>